<svg width="29" height="30" viewBox="0 0 29 30" fill="none" xmlns="http://www.w3.org/2000/svg">
<g clip-path="url(#clip0_229_412)" filter="url(#filter0_d_229_412)">
<path d="M4 22C4 19.8783 4.84285 17.8434 6.34315 16.3431C7.84344 14.8429 9.87827 14 12 14C14.1217 14 16.1566 14.8429 17.6569 16.3431C19.1571 17.8434 20 19.8783 20 22H18C18 20.4087 17.3679 18.8826 16.2426 17.7574C15.1174 16.6321 13.5913 16 12 16C10.4087 16 8.88258 16.6321 7.75736 17.7574C6.63214 18.8826 6 20.4087 6 22H4ZM12 13C8.685 13 6 10.315 6 7C6 3.685 8.685 1 12 1C15.315 1 18 3.685 18 7C18 10.315 15.315 13 12 13ZM12 11C14.21 11 16 9.21 16 7C16 4.79 14.21 3 12 3C9.79 3 8 4.79 8 7C8 9.21 9.79 11 12 11ZM20.284 14.703C21.6893 15.3359 22.882 16.3612 23.7186 17.6557C24.5552 18.9502 25.0002 20.4587 25 22H23C23.0002 20.844 22.6666 19.7125 22.0391 18.7416C21.4116 17.7707 20.5171 17.0017 19.463 16.527L20.283 14.703H20.284ZM19.596 3.413C20.6035 3.8283 21.465 4.53354 22.071 5.43923C22.6771 6.34492 23.0004 7.41024 23 8.5C23.0004 9.87233 22.4877 11.1952 21.5625 12.2088C20.6374 13.2224 19.3667 13.8535 18 13.978V11.965C18.7409 11.8589 19.4283 11.518 19.9613 10.9925C20.4943 10.4669 20.8447 9.78432 20.9612 9.04493C21.0776 8.30555 20.954 7.5483 20.6084 6.88435C20.2628 6.22041 19.7134 5.68475 19.041 5.356L19.596 3.413Z" fill="black"/>
</g>
<defs>
<filter id="filter0_d_229_412" x="-2" y="0" width="32" height="32" filterUnits="userSpaceOnUse" color-interpolation-filters="sRGB">
<feFlood flood-opacity="0" result="BackgroundImageFix"/>
<feColorMatrix in="SourceAlpha" type="matrix" values="0 0 0 0 0 0 0 0 0 0 0 0 0 0 0 0 0 0 127 0" result="hardAlpha"/>
<feOffset dy="4"/>
<feGaussianBlur stdDeviation="2"/>
<feComposite in2="hardAlpha" operator="out"/>
<feColorMatrix type="matrix" values="0 0 0 0 0 0 0 0 0 0 0 0 0 0 0 0 0 0 0.25 0"/>
<feBlend mode="normal" in2="BackgroundImageFix" result="effect1_dropShadow_229_412"/>
<feBlend mode="normal" in="SourceGraphic" in2="effect1_dropShadow_229_412" result="shape"/>
</filter>
<clipPath id="clip0_229_412">
<rect width="24" height="24" fill="white" transform="translate(2)"/>
</clipPath>
</defs>
</svg>
